<?xml version="1.0" encoding="utf-8"?>
<!-- Generator: Adobe Illustrator 23.1.0, SVG Export Plug-In . SVG Version: 6.00 Build 0)  -->
<svg version="1.1" id="Layer_1" xmlns="http://www.w3.org/2000/svg" xmlns:xlink="http://www.w3.org/1999/xlink" x="0px" y="0px"
	 viewBox="0 0 1696 813" style="enable-background:new 0 0 1696 813;" xml:space="preserve">
<g>
	<g>
		<path d="M170.61,15.84c-8.13,31.33-16.97,62.47-26.52,93.4c-9.55,30.92-19.81,61.63-30.77,92.08
			c-10.86,30.18-22.55,60.04-34.49,89.81c-11.69,29.14-23.45,58.27-33.98,87.86c-10.5,29.47-19.79,59.42-26.48,90
			c-0.84,3.83-1.63,7.66-2.39,11.5c-0.37,1.89,2.52,2.69,2.89,0.8c6.04-30.72,14.81-60.82,24.98-90.41
			c10.21-29.69,21.8-58.88,33.48-88.01c11.89-29.66,23.75-59.33,34.74-89.34c11.13-30.39,21.57-61.04,31.3-91.91
			s18.75-61.96,27.05-93.24c1.04-3.91,2.06-7.82,3.08-11.74C173.99,14.77,171.1,13.97,170.61,15.84L170.61,15.84z"/>
	</g>
</g>
<g>
	<g>
		<path d="M79.29,272.75c33.22-16.03,66.36-32.22,99.42-48.56s66.05-32.85,98.95-49.51s65.73-33.48,98.48-50.45
			s65.41-34.11,97.99-51.39s65.08-34.73,97.49-52.33c4.05-2.2,8.1-4.4,12.15-6.61c1.7-0.92,0.18-3.51-1.51-2.59
			c-32.39,17.63-64.87,35.12-97.43,52.44c-32.56,17.33-65.2,34.5-97.93,51.51s-65.53,33.87-98.42,50.57s-65.85,33.24-98.89,49.63
			s-66.17,32.61-99.36,48.68c-4.15,2.01-8.3,4.01-12.45,6.02C76.04,271,77.56,273.59,79.29,272.75L79.29,272.75z"/>
	</g>
</g>
<g>
	<g>
		<path d="M92.41,267.13c41.86,28.24,83.8,56.35,125.84,84.33c41.86,27.86,83.81,55.58,125.84,83.16
			c42.21,27.7,84.52,55.27,126.91,82.7c42.21,27.32,84.51,54.49,126.9,81.54c42.57,27.16,85.22,54.18,127.96,81.06
			c5.23,3.29,10.46,6.58,15.69,9.86c1.64,1.03,3.15-1.57,1.51-2.59c-42.76-26.85-85.44-53.84-128.03-80.96
			c-42.41-27.01-84.73-54.16-126.96-81.44c-42.41-27.4-84.74-54.93-126.97-82.6c-42.06-27.55-84.03-55.24-125.91-83.06
			c-42.06-27.94-84.03-56.02-125.9-84.23c-5.12-3.45-10.25-6.91-15.37-10.36C92.32,263.45,90.82,266.05,92.41,267.13L92.41,267.13z"
			/>
	</g>
</g>
<g>
	<g>
		<path d="M628.95,201.04c35.78,45.04,71.56,90.07,107.33,135.11c35.63,44.85,71.26,89.7,106.89,134.55
			c17.89,22.52,35.78,45.04,53.67,67.55c8.94,11.26,17.89,22.52,26.83,33.78c6.16,7.75,13.03,20.29,24.7,18.48
			c11.06-1.72,16.53-12.37,18.83-22.23c3.11-13.34,4.98-27.06,7.39-40.54c5.07-28.29,10.13-56.58,15.2-84.88
			c10.13-56.58,20.26-113.17,30.4-169.75c1.25-6.96,2.49-13.91,3.74-20.87c-0.91,0.12-1.83,0.24-2.74,0.36
			c33.66,46.81,63.35,96.32,90.92,146.92c27.73,50.91,53.36,102.91,79.1,154.84c13.19,26.61,25.93,54.63,48.07,75.16
			c0.85,0.79,2.14,0.42,2.51-0.66c15.62-46.78,30.13-93.94,43.48-141.42c13.35-47.48,25.54-95.29,36.58-143.36
			c6.23-27.15,12.08-54.39,17.58-81.7c0.38-1.89-2.51-2.69-2.89-0.8c-9.72,48.36-20.6,96.48-32.64,144.31
			c-12.04,47.83-25.25,95.37-39.59,142.56c-8.1,26.65-16.58,53.19-25.4,79.62c0.84-0.22,1.67-0.44,2.51-0.66
			c-19.86-18.42-31.94-43-43.81-66.92c-12.74-25.67-25.42-51.36-38.31-76.95c-25.86-51.32-52.6-102.26-82.3-151.48
			c-16.69-27.66-34.34-54.74-53.19-80.97c-0.67-0.93-2.49-1.04-2.74,0.36c-9.88,55.19-19.77,110.38-29.65,165.58
			c-4.9,27.36-9.8,54.73-14.7,82.09c-2.45,13.68-4.9,27.36-7.35,41.05c-1.24,6.92-2.47,13.85-3.72,20.77
			c-1.11,6.16-2.3,12.53-5.6,17.94c-3.03,4.96-8.49,9.07-14.54,8.84c-6.58-0.24-10.71-6.52-14.4-11.16
			c-8.65-10.89-17.3-21.78-25.95-32.67c-17.45-21.96-34.9-43.93-52.35-65.89c-34.75-43.74-69.5-87.49-104.25-131.23
			c-34.75-43.74-69.5-87.49-104.25-131.23c-4.4-5.54-8.8-11.07-13.2-16.61C629.87,197.4,627.76,199.54,628.95,201.04L628.95,201.04z
			"/>
	</g>
</g>
<g>
	<g>
		<path d="M1566.65,382.81c-27.82-7.5-60.78-12.23-86.98,3.03c-10.6,6.18-20.49,17.1-19.29,30.2c1.28,14.08,13.27,25.25,23.28,34.03
			c21.33,18.69,47.04,31.25,72.38,43.49c25.01,12.08,50.14,24.12,71.52,42.15c19.79,16.69,37.13,38.37,42.09,64.36
			c5.22,27.37-5.48,53.87-22.5,74.99c-17.73,22-41.08,39.09-64.95,53.86c-24.78,15.32-51.25,27.87-78.76,37.47
			c-27.5,9.6-56.05,16.29-84.97,19.83c-28.82,3.53-58.03,4-86.93,1.22c-7.18-0.69-14.34-1.58-21.47-2.67
			c-1.89-0.29-2.7,2.6-0.8,2.89c28.74,4.4,57.92,5.62,86.93,3.67c28.89-1.94,57.59-6.95,85.43-14.89
			c27.83-7.94,54.85-18.82,80.38-32.45c24.95-13.32,49.32-29.12,70.06-48.46c19.42-18.12,36.66-41.03,40.91-67.88
			c2.02-12.79,0.99-25.89-2.96-38.22c-3.9-12.17-10.4-23.31-18.28-33.31c-16.64-21.1-39.13-36.97-62.7-49.47
			c-25.19-13.37-51.72-24.23-76.12-39.08c-12.03-7.32-23.49-15.65-33.54-25.55c-9.83-9.68-20.72-23.06-13.93-37.52
			c6-12.78,20.29-19.72,33.31-23c14.75-3.72,30.32-3.11,45.22-0.64c7.38,1.22,14.66,2.91,21.88,4.86
			C1567.72,386.2,1568.52,383.31,1566.65,382.81L1566.65,382.81z"/>
	</g>
</g>
</svg>
